<svg width="48" height="48" viewBox="0 0 48 48" fill="none" xmlns="http://www.w3.org/2000/svg">
<rect width="48" height="48" fill="#323238"/>
<path d="M22.0694 23.1692C23.4497 22.4957 24.1701 21.4766 24.1701 19.8903C24.1701 16.7621 21.8872 16 19.2526 16H12V31.7031H19.4566C22.2517 31.7031 24.8776 30.334 24.8776 27.1437C24.8776 25.172 23.9618 23.7142 22.0694 23.1692ZM15.3811 18.6807H18.5538C19.7734 18.6807 20.8715 19.0307 20.8715 20.4752C20.8715 21.8089 20.0165 22.3451 18.8099 22.3451H15.3811V18.6807ZM18.9965 29.0357H15.3811V24.7112H19.066C20.5547 24.7112 21.4965 25.3448 21.4965 26.9532C21.4965 28.5395 20.3724 29.0357 18.9965 29.0357ZM34.5564 18.3705H28.3194V16.8241H34.5564V18.3705ZM37 26.1822C37 22.8192 35.0729 20.0144 31.579 20.0144C28.1849 20.0144 25.8802 22.6198 25.8802 26.0316C25.8802 29.5719 28.0634 32 31.579 32C34.2396 32 35.9627 30.7771 36.7917 28.1761H34.092C33.8012 29.1465 32.6033 29.6605 31.6745 29.6605C29.8819 29.6605 28.9401 28.5882 28.9401 26.7671H36.974C36.987 26.581 37 26.3816 37 26.1822ZM28.9444 24.7998C29.0443 23.3066 30.0165 22.3716 31.4835 22.3716C33.02 22.3716 33.7925 23.2933 33.9227 24.7998H28.9444Z" fill="white"/>
</svg>
