<svg width="48" height="48" viewBox="0 0 48 48" fill="none" xmlns="http://www.w3.org/2000/svg">
<rect width="48" height="48" fill="#323238"/>
<rect x="13" y="14" width="22" height="20" fill="white"/>
<path d="M34.2857 11H13.7089C12.7661 11 12 11.8092 12 12.8025V34.1975C12 35.1908 12.7661 36 13.7089 36H34.2857C35.2286 36 36 35.1908 36 34.1975V12.8025C36 11.8092 35.2286 11 34.2857 11ZM19.2536 32.4286H15.6964V20.4978H19.2589V32.4286H19.2536ZM17.475 18.8683C16.3339 18.8683 15.4125 17.9029 15.4125 16.7199C15.4125 15.5368 16.3339 14.5714 17.475 14.5714C18.6107 14.5714 19.5375 15.5368 19.5375 16.7199C19.5375 17.9085 18.6161 18.8683 17.475 18.8683ZM32.5875 32.4286H29.0304V26.625C29.0304 25.2411 29.0036 23.4609 27.1821 23.4609C25.3286 23.4609 25.0446 24.9676 25.0446 26.5246V32.4286H21.4875V20.4978H24.9V22.1272H24.9482C25.425 21.1897 26.5875 20.202 28.3179 20.202C31.9179 20.202 32.5875 22.6741 32.5875 25.8884V32.4286Z" fill="#323238"/>
</svg>
